<svg xmlns="http://www.w3.org/2000/svg" viewBox="0 0 112.25 39.13"><defs><style>.cls-1{fill:none;}.cls-2,.cls-5{fill:#fff;}.cls-3{fill:gray;}.cls-4{fill:#d6d6d6;}.cls-5{font-size:36px;font-family:MyriadPro-Bold, Myriad Pro;font-weight:700;}.cls-6{letter-spacing:0.01em;}</style></defs><title>Ресурс 2</title><g id="Слой_2" data-name="Слой 2"><g id="Layer_1" data-name="Layer 1"><polygon class="cls-1" points="80.19 18.35 80.21 18.57 80.23 18.71 80.23 18.95 80.25 19.08 80.25 19.11 80.27 19.27 80.26 19.26 80.27 19.31 80.26 19.29 80.26 19.26 80.26 19.23 80.25 19.2 80.25 19.18 80.25 19.15 80.24 19.12 80.24 19.09 80.23 19.07 80.23 19.04 80.23 19.01 80.22 18.98 80.22 18.95 80.22 18.93 80.21 18.9 80.21 18.87 80.21 18.85 80.2 18.82 80.2 18.79 80.2 18.76 80.2 18.73 80.19 18.7 80.19 18.68 80.19 18.66 80.18 18.62 80.18 18.6 80.18 18.57 80.18 18.54 80.17 18.51 80.17 18.48 80.17 18.45 80.17 18.43 80.16 18.41 80.16 18.38 80.16 18.35 80.16 18.32 80.15 18.29 80.15 18.26 80.15 18.24 80.15 18.21 80.15 18.18 80.14 18.16 80.14 18.13 80.14 18.1 80.14 18.07 80.14 18.04 80.14 18.01 80.14 17.99 80.14 17.96 80.14 17.93 80.14 17.9 80.14 17.88 80.14 17.85 80.14 17.82 80.13 17.8 80.13 17.77 80.13 17.74 80.13 17.71 80.13 17.68 80.13 17.65 80.13 17.62 80.13 17.6 80.13 17.57 80.13 17.54 80.13 17.52 80.11 17.49 80.11 17.46 80.11 17.43 80.11 17.4 80.11 17.37 80.11 17.34 80.11 17.32 80.11 17.3 80.11 17.27 80.11 17.24 80.11 17.21 80.11 17.18 80.11 17.17 80.11 17.2 80.16 17.89 80.19 18.35"/><path class="cls-1" d="M94.37,2.63l0-.08h.07l.06,0h0l0,.05h-.07Z"/><path class="cls-1" d="M86.23,28.22h0l0-.09h.08l0,0Z"/><path class="cls-1" d="M106.3,29.36l0,0-.17.12v0h0l-.13.1,0,0-.07.05h0l.14-.1v0l-.11.06.22-.17Zm-.88.66.13-.08.15-.11v0l-.13.11-.17.13v0l0-.05Zm-1,.7-.38.24.16-.1.21-.14.18-.13.16-.14h0l-.18.14Zm1.4-1-.11.08-.09.09-.09.08-.12.06.05,0,.08-.06,0-.06.14-.11-.06.07.21-.18Z"/><path class="cls-1" d="M83.91,20.46l-.17-.19-.26-.16,0-.16.1-.05-.07-.3h0l.17.14v-.07h.07l0,.12,0,.11V20l0,0,0,.15.14.2Zm.33-5,0-.26.12,0,.16.2,0,.23v.11l-.08,0-.05.07Zm9.31-3.35h-.07l0,.05h-.11V12l.12-.08-.1-.09.15,0,.07,0-.06.09.09,0,.1,0v.13l0,0Zm-1.17,2.72-.38.25-.16.3,0,.42h-.09l-.33-.29.08-.17-.13-.22.13-.19h.14l.13-.19.39-.17-.06-.09.42-.17.08-.17.31-.06.41-.08.33.06L93.9,14l.19,0v.17l-.11.1-.41.06-.36,0-.48.19ZM96.28,13l-.1-.07.16-.28.13-.11.15.19.22.36,0,.36-.16.08-.24-.1-.15-.14Zm1.08.6-.44.24,0-.54.06-.06h.06l.26.18Zm3.13-.35-.17-.24,0-.14.18-.16.37-.13.19.25-.24.28,0,.18Zm.59-.65-.1-.1.15-.11.21-.14.07.19-.1.1Zm.17,1-.06-.2.06-.12.21,0,.09.06-.1.13-.18.15Zm2-3.69v-.1l.09-.14h0l.1.14,0,.14,0,.14h-.11l-.15-.16Zm4.88,10.33-.19,0,0,.31-.16-.16-.14-.25-.2-.23-.1-.22-.24-.34-.27-.14-.25-.35,0-.28-.15-.06,0-.1.16.11.24.18.2.25.24.16.45.23-.24.21.17.46.29,0Zm.28-3.79-.36-.19-.56-.35-.29-.37-.1-.27-.12-.11,0-.31-.24-.54-.21-.47-.15-.44-.39-.36v.2l.22.24.2.6L106,14l0,.47.31.75h.21l-.09.43-.1.28-.18-.17L106,16l0,.31-.33.44-.28.59.06,1,0,1.25.25-.21.2.09.18-.1,0-.24.17-.17.41,0,.17.21.08.39.22.32.21.47V21l0,.23,0,.55-.08.54,0,.25L107,23l-.12.13h-.17l-.17.42v.11h0l-.06-.13.1-.09-.12-.33-.15-.16.12-.25.24-.17,0-.37-.09-.34v-.17l-.06-.32-.23.36-.09.26-.27.26-.21-.19h-.32l-.37.18-.21-.23-.16-.13-.14-.07-.27-.22H104l-.32.1-.26.19-.21.21-.1.25h.14l.09.19-.08.16-.06.45.06.14-.23.37-.31,0-.26.15-.16,0-.14,0-.27.39-.3.18-.19.17-.32.06-.22.08-.19-.12-.27-.09-.26,0-.3.14-.23.12-.37-.06-.09-.25-.3,0H98.6l-.29-.11-.23.41.13.19-.23.28-.38,0h-.25l-.19-.15-.26,0-.23-.1-.39.18-.5.3-.28.06-.1,0-.13-.22-.34,0-.1-.16L94.65,25l-.1-.21-.14-.09-.37.05-.33-.26-.15.16-.41-1-.25-.35.1-.1-.64.2-.22-.05.06-.19-.27-.21h-.25l0-.39-.36-.22-.24.08-.57-.11-.13,0-.82-.27-.13.06.05.31-.22,0v.1l-.26,0,.25.41-.12.13-.29-.2-.1.06-.19-.33-.32-.2H88l-.17-.29-.31-.53-.29-.23h-.53l-.15.19-.07-.33-.32.17,0,.11-.22.1,0,.33.13.11,0,.29-.09.12.07.13-.16.07-.2-.12-.23.06-.09,0,0,.4-.06.08,0,.06,0,.27,0,.22-.15,0-.07,0-.07-.11-.06-.27-.05-.05L85,23v-.14l-.13-.23,0,0-.07-.05V22.5l-.17-.38-.22-.33-.1-.21h0l-.08-.45L84,20.81l0-.31.13.12.25,0,0-.21.27.2,0-.06-.15-.14.07-.1.12,0,.15.16.08,0,0-.18.16-.05,0-.08L85,19.79l-.08-.11v-.23l-.13-.11L84.72,19l0,0,0-.17-.08-.17.05-.08h.07l0-.26-.13-.17,0-.07h-.07l0-.08.11-.19,0-.12h0l.08.16.09,0,0-.11,0-.17,0,0v-.13l.09-.26.08,0,.1-.12,0-.22-.06-.07,0-.08,0-.24.12-.19.12-.12,0-.13h.11l.21-.26H86l0-.05.24.05,0-.28.52,0H87l.18-.06.07-.38.22-.09.14-.3.31-.11.26-.42.3-.06.1-.34.23-.14.08.08.23.09.18,0-.07.33.14.35v.73l-.06.22-.17.19-.26,0-.23-.12-.17-.75-.09-.05-.09.39-.12.12-.28.28,0,.25v.17l.15-.11,0-.19.16,0,.07.47.15,0,.13-.28.5,0,.07.12v.21L89.5,16l.07-.28.21-.12.09-.27.2.38-.08.23-.17-.08-.15.17v.18l.23.09.19-.18.35,0,.6,0,.08.08-.26.13.13.14.16-.06.23.13.27,0,0,.31.28-.16,0-.29.13-.09.32.3.12.2.33.65.16-.17L92.92,17l0-.09-.14-.1.11-.16,0-.34,0-.12.36-.27.2-.33.12,0,.27.2,0,.23-.22.28.05.16-.05.29-.19.55.09.29-.13.25L93,18.3l.16.12.11-.13.2,0,.09-.19.18-.17,0-.25.13-.25-.16-.07,0-.24L94,16.7l-.07-.37.29-.21,0-.29h.06v.23l-.14.39.12.1v-.3l.24-.12.27,0,.2.28-.07-.37.06-.44.22-.05.28,0,.25,0-.08-.22.14-.27h.12l.22-.2.26-.07,0-.11.26-.06.1.08.19-.24.18,0V14.3l0-.2.17-.2.18.09-.08.12h.21l.08.19.06-.12.27-.08.27.11.14.11.06.21-.06.15-.18.32,0,.14h.15l.19,0,.07-.11.16.23v-.13l.15-.12.36-.1.11.15.45-.17-.15-.28.24-.07.15-.11.27.07.2.19,0,.17.32.18h.25l-.17-.41h.26l.08-.22.25-.08v-.15l.17-.11-.34-.2,0-.23.79-.66.24.06.39-.11.13-.46.15-.2h.17l.24.15.14-.1,0-.19,0-.22.13-.19v-.25l.33-.09-.1-.2-.22,0-.15-.1.12-.34v-.26l.16-.31.13-.13.22-.25.27-.28.2,0,.06-.08h-.22l0-.34.21-.22.17.14.08.23.3.05.08.07,0,.13-.08.08-.06.18h-.12l0,.13.07.16-.11.05-.12-.06.09.18.15,0,.14.12.15.22,0,.18.17-.07.24,0,.07,0,.12,0,.08,0,0,.27.24.53,0,.15.19.34.17.32.12.13-.22.14.16.55-.11,0,.08.23-.08.2.17.18.21.37.11.07.1-.17.38.27,0,.18.2.23H108l0,.43.24.27,0,.35.21.24.1.48Z"/><polygon class="cls-1" points="80.94 12.3 80.94 12.31 80.95 12.3 80.95 12.28 80.94 12.3"/><path class="cls-1" d="M106.29,8.57l.08.09,0,.1,0,.09-.09-.17,0-.11Zm-.4-1.83.18.15V7L106,7l-.16-.13-.08-.08,0-.09,0-.06ZM91.75,1.9l0,0h0Z"/><polygon class="cls-2" points="94.53 2.59 94.54 2.58 94.48 2.55 94.41 2.55 94.37 2.63 94.41 2.65 94.48 2.64 94.53 2.59"/><polygon class="cls-2" points="96.57 5.88 96.63 5.91 96.78 5.95 96.8 5.78 96.78 5.65 96.69 5.55 96.66 5.56 96.65 5.47 96.45 5.44 96.38 5.45 96.35 5.54 96.43 5.62 96.51 5.63 96.48 5.75 96.57 5.88"/><polygon class="cls-2" points="97.06 4.86 96.86 4.87 96.77 5.08 96.75 5.21 96.82 5.43 96.87 5.35 96.97 5.38 97.13 5.32 97.25 5.34 97.32 5.06 97.21 4.94 97.06 4.86"/><polygon class="cls-2" points="96.08 4.7 95.9 4.68 95.69 4.68 95.42 4.74 95.27 4.73 95.13 4.81 95.05 4.91 95.11 5.04 95.26 5.13 95.44 5.13 95.63 5.09 95.76 5.04 96 5.06 96.04 5.1 96.13 5.15 96.11 5.24 96.22 5.34 96.39 5.35 96.48 5.44 96.7 5.47 96.77 5.31 96.65 5.21 96.48 5.15 96.41 5.07 96.41 4.95 96.38 4.79 96.08 4.7"/><polygon class="cls-2" points="96.49 4.73 96.4 4.86 96.44 4.96 96.54 5.09 96.73 5.02 96.83 4.86 96.67 4.77 96.49 4.73"/><polygon class="cls-2" points="98.03 5.89 97.92 5.71 97.69 5.73 97.59 5.85 97.67 5.92 97.48 5.95 97.6 6.1 97.65 6.15 97.81 6.08 97.86 5.97 97.82 5.96 97.87 5.97 98.03 5.89"/><polygon class="cls-2" points="97.12 5.75 97.03 5.66 96.83 5.57 96.83 5.77 96.86 5.92 97.05 6.07 97.23 6.16 97.28 5.97 97.23 5.91 97.38 5.83 97.12 5.75"/><polygon class="cls-2" points="94.85 7.29 94.98 7.29 95.7 7.1 95.77 7.02 95.78 6.95 95.79 6.96 95.89 6.97 95.97 6.84 96.05 6.81 96.12 6.8 96.23 6.71 96.44 6.54 96.41 6.47 96.45 6.47 96.52 6.36 96.58 6.22 96.56 6.08 96.48 5.95 96.42 5.94 96.44 5.81 96.35 5.67 96.17 5.62 95.99 5.64 95.97 5.68 95.92 5.66 96.01 5.62 95.96 5.43 96.12 5.38 96.09 5.18 95.89 5.16 95.74 5.14 95.49 5.2 95.23 5.16 94.99 5.38 94.99 5.51 95.16 5.48 95.1 5.54 95.08 5.65 95 5.73 94.93 5.88 95.03 5.99 95 6.07 94.93 6.09 94.91 6.17 94.78 6.25 94.78 6.51 94.73 6.61 94.65 6.92 94.64 7.14 94.7 7.24 94.85 7.29"/><path class="cls-2" d="M88.86,3.38l.57-.26v.14l.1-.06.18,0L90,3.17l.31,0L90.56,3,91,3h.35l.34,0,.24,0L92,3,92,2.81l.48-.12.13.1.08.1.3-.07.5.06.12-.07.15,0,.29,0,.16-.08-.16-.22L94,2.4l.25-.13-.4-.1-.12-.1L93.9,2l.51-.15L94,1.8,94,1.73l.12,0h.3l.16.06.06,0v.1l.56,0,.58.06.53.08.24,0,.13.18.23,0-.08.14-.39.22-.21,0,0,.09-.08.06h-.21l-.21.12-.1.15,0-.19.29-.17-.39,0-.08-.08L95,2.76l-.08,0,.25-.13-.1-.1H95l-.21.12v.09h-.08l-.25.13.34,0L95,3l.33,0,0,.06h.12v0h-.33l-.29.17v.12l.1.08-.06.09.1.16-.24.06,0,0-.09,0h-.11l-.1-.05.11-.1h-.25l.11-.05,0-.15-.09-.12-.18.05L94,3.55l0,.12-.18,0-.11-.07.09-.17,0-.14h0l.18-.06.3-.05.09-.2-.22-.05L93.71,3h-.32l0-.06h-.29l-.39,0-.58.12.18.09h0l-.2,0,0,.18.23.1.33,0,.19,0-.1.07-.57-.05-.11.3.09.18L92.46,4l.3.08L93,4h.25l-.14.12.28.16.17,0h.31l.19.1.17-.08,0,0,.29.09,0,.14.24.1h.26l.09-.11.1.09.3-.14.06-.12,0,0-.1.21.36-.09.15-.11.09-.23,0-.27V3.92L96,3.82l-.38,0,0-.19.08-.15.09-.1.09.07,0,.14.2.17.13-.11v.12l.18,0-.07.05.18.27.13.12-.08.09-.16.07-.22.26.27.08.23,0,.12-.06.1-.28.1.08-.09.07,0,.14h.21l.11.07.22-.12,0-.11.15,0,.06-.14-.24-.22-.07-.1-.15,0-.23.07.1-.29.17.1.33-.17-.23-.16h.06v-.1l.36,0,.19.11.15,0,.08.11h0L98,3.71l-.24-.07-.12.1,0,0-.22.13.22.15.15.12,0,.12v.21l-.18.14.1.12.18,0,.27-.07,0-.19v.08l.08.15.18-.07.08.14h.15l.11.3.06.11.22.12.1.09.38.23,0-.25.18-.07.37-.16L99.93,5l0-.14-.43-.07,0,0-.14-.13h.11l0-.17-.15-.07.19,0,0-.25.12.08.21.17.1.15.15.1.11,0,.08,0-.15.15.33,0v.21l.1.09.12,0h.06v.1l.25.09.23.05.12.12.2.07h.16l.07.08,0,.17.22.47.15.09.14.25.07.23.1.08,0,.1h-.08l.11.31,0,.2.25.13,0,.08.52.4.17,0,.18.12.1.21.25.11,0-.21.08-.1.12-.09.13-.21.06.13-.11,0,0,.14.26.3s.15.24.23.23.14-.19.14-.19l.12-.05V8.37l-.12-.2L105,8l-.1,0h0l0-.12H105l.1.09,0,.09.16.11v.09l.09.13.17.07.2.12.21.09.08-.1h.14l0,.14.14.25.08-.17,0-.13-.11-.13h-.14V8.43l.08-.13-.14-.21h.3l-.08-.16-.13-.13s.11,0,.11-.06-.14-.06-.14-.06.07-.07.06-.09-.14-.1-.14-.1v0l0,0,.15,0,1.25,1.29.1-.08-.22-.34-.44-.49-.23-.31-.14-.07-.25-.25-.13,0L106,7h0l.11,0V6.86l-.44-.32,0,.14.07.13-.18-.1,0,.1-.32-.2.2-.13-.17-.1H105l-.12-.25L104.79,6l-.13,0-.14-.1,0-.15-.13-.26-.18-.17L104,5.18l-.08-.1-.08-.28-.11-.15-.32-.26.06-.09-.06-.17s.08,0,.08-.08-.11-.13-.11-.13l.06,0-.11-.17s.08,0,.08,0-.12-.1-.12-.1l0-.06.21.1,0-.15-.15-.11s-.3-.17-.28-.26l.18,0,.34.14.19.09-.23-.21h0L102.4,2.6a26.9,26.9,0,0,0-5.59-1.33,21.91,21.91,0,0,0-3.19.18A24.35,24.35,0,0,0,90,2.52c-.37.17-1.45.78-1.45.78v.14l.17,0Zm9.79.32.08.13h.14l.35.1.07,0h-.13L98.9,3.9l-.31-.06.07,0-.09-.1Z"/><polygon class="cls-2" points="98.08 5.97 98.3 5.99 98.4 6.04 98.69 5.96 99.02 5.86 98.91 5.68 98.73 5.65 98.51 5.68 98.42 5.65 98.76 5.45 98.62 5.32 98.4 5.25 98.43 5.25 98.51 5.1 98.3 5.04 98.01 5.06 97.65 5 97.53 5.12 97.48 5.3 97.62 5.35 97.68 5.34 97.68 5.37 97.64 5.51 97.76 5.6 97.94 5.51 97.93 5.3 97.98 5.32 98.06 5.49 98.27 5.68 98.41 5.66 98.29 5.71 98.08 5.97"/><polygon class="cls-2" points="103.75 3.92 103.46 3.94 103.75 4.11 103.81 4.18 103.91 4.18 103.98 4.09 103.93 4.02 103.93 3.96 103.87 3.87 103.68 3.71 103.75 3.92"/><polygon class="cls-2" points="81.47 19.53 81.45 19.28 81.29 19.33 81.36 19.71 81.53 20.13 81.65 20.06 81.59 19.94 81.47 19.53"/><polygon class="cls-2" points="94.68 6.95 94.61 6.83 94.72 6.55 94.72 6.55 94.7 6.37 94.47 6.3 94.87 5.91 94.82 5.75 94.45 5.69 94.62 5.57 94.17 5.37 93.75 5.56 93.56 5.62 93.25 5.45 93.01 5.5 92.51 5.27 92.42 5.25 92.35 5.02 92.16 5.03 92.1 5.11 91.97 5.11 92.07 5.03 91.85 4.76 91.62 4.79 91.48 5.02 91.39 4.9 91.48 4.75 91.37 4.47 91.23 4.47 91.15 4.36 90.81 4.35 90.45 4.23 89.56 4.28 89.28 4.48 88.95 4.57 88.72 4.77 88.86 4.92 88.97 5.03 89.14 5.05 89.12 5.24 89.34 5.41 89.37 5.5 89.15 5.86 89.1 6.17 89.25 6.39 89.27 6.49 89.19 6.6 89.05 6.92 89.09 7.27 89.22 7.67 89.35 7.47 89.29 7.7 89.62 7.7 89.87 7.61 89.74 7.7 90 7.74 90.18 7.69 90.16 7.71 90.13 7.9 90.29 7.97 90.39 7.93 90.33 8.09 90.69 8.03 90.68 8.09 91.04 8.13 91.25 8.05 91.27 8.12 91.22 8.29 91.56 8.24 92.4 8.55 92.69 8.88 92.91 8.85 93.05 8.7 92.99 8.39 93.24 8.43 93.38 8.58 93.83 8.42 94.07 8.15 94.15 8 94.09 7.91 94.2 7.82 94.15 7.56 94.05 7.47 94.25 7.48 94.24 7.3 94.31 7.33 94.68 6.95"/><path class="cls-2" d="M87.27,8.6l.27-.16.2,0,.13-.26L87.81,8,88,7.86l-.06-.19.27-.16s.09-.18.07-.23-.18-.14-.18-.14l-.22.25L88,7.05l-.38.35,0-.14-.33.43a1.13,1.13,0,0,0-.14.18,2.11,2.11,0,0,0,0,.54Z"/><polygon class="cls-2" points="81.12 15.51 81.37 15.29 81.46 15.04 81.58 15.01 81.73 14.81 81.64 14.67 81.53 14.67 81.43 14.83 81.43 14.59 81.27 14.91 81.12 15.09 81.08 15.24 81.12 15.3 81.12 15.51"/><polygon class="cls-2" points="108.92 22.91 108.91 22.69 108.81 22.49 108.84 22.09 108.84 22.08 108.75 21.91 108.45 21.68 108.44 21.71 108.39 21.44 108.7 21.26 108.69 20.84 108.85 20.45 108.57 20.17 108.53 20.49 108.43 20.57 108.28 20.65 107.92 20.66 108.02 20.97 108.16 21.31 108.01 21.53 108.04 21.84 108.23 22.08 108.28 22.01 108.29 22.26 108.44 22.45 108.47 22.81 108.26 23.49 108.1 23.55 108.06 24.13 107.86 24.31 107.5 24.76 107.39 25.06 107.22 25.37 107.19 25.48 107.15 25.51 107.18 25.5 107.15 25.59 106.94 25.88 107.14 25.95 107.24 25.91 107.23 26.11 107.44 26.06 107.56 25.84 107.61 25.37 107.61 25.36 107.62 25.39 107.84 25.28 107.85 25.1 107.93 24.97 108.03 24.94 108.11 24.65 108.32 24.55 108.5 24.02 108.79 23.63 108.97 23.26 109 22.96 108.92 22.91"/><path class="cls-2" d="M92,10.12c-.09,0-.33.15-.33.15l-.3.23-.08.13-.14,0-.23.3.08.14.34-.09.08,0,.29-.07L92,11l.13-.21V11l.15.19.29,0,.08-.22,0-.24h-.11l0-.08-.22-.18-.11-.14S92.1,10.13,92,10.12Z"/><polygon class="cls-2" points="91.72 11.26 91.88 11.14 91.66 10.97 91.55 11.08 91.42 11.08 91.36 11.32 91.67 11.44 91.72 11.26"/><polygon class="cls-2" points="106.31 29.29 106.21 29.35 106.11 29.43 106.1 29.43 106.14 29.37 105.66 29.66 105.59 29.71 105.65 29.66 105.78 29.46 105.7 29.45 105.73 29.39 105.64 29.34 105.54 29.45 105.4 29.53 105.24 29.62 105.13 29.8 105.08 29.94 104.98 29.98 104.95 30.12 105.02 30.15 104.8 30.29 104.85 30.6 105.5 30.13 105.5 30.13 106.39 29.41 106.39 29.3 106.31 29.29"/><polygon class="cls-2" points="103.34 9.7 103.3 9.69 103.21 9.83 103.22 9.93 103.24 9.95 103.39 10.11 103.5 10.12 103.47 9.98 103.44 9.84 103.34 9.7"/><polygon class="cls-2" points="101.41 12.48 101.34 12.29 101.13 12.43 100.98 12.54 101.08 12.64 101.31 12.58 101.41 12.48"/><polygon class="cls-2" points="100.53 12.75 100.35 12.91 100.32 13.05 100.49 13.29 100.81 13.33 100.85 13.15 101.09 12.87 100.9 12.62 100.53 12.75"/><polygon class="cls-2" points="101.27 13.62 101.45 13.47 101.55 13.34 101.46 13.28 101.25 13.3 101.19 13.42 101.25 13.62 101.27 13.62"/><polygon class="cls-2" points="107.99 20.1 107.69 20.06 107.53 19.6 107.77 19.39 107.32 19.16 107.08 19 106.88 18.75 106.64 18.57 106.48 18.45 106.45 18.56 106.6 18.62 106.58 18.9 106.83 19.25 107.1 19.39 107.34 19.73 107.44 19.95 107.64 20.18 107.78 20.43 107.94 20.59 107.91 20.28 108.1 20.26 107.99 20.1"/><polygon class="cls-2" points="96.34 13.33 96.49 13.47 96.73 13.57 96.89 13.49 96.84 13.13 96.62 12.77 96.47 12.58 96.34 12.69 96.18 12.96 96.28 13.04 96.34 13.33"/><polygon class="cls-2" points="93.33 12.13 93.44 12.13 93.48 12.09 93.55 12.1 93.66 12.12 93.71 12.08 93.7 11.95 93.61 11.97 93.52 12.02 93.58 11.93 93.51 11.88 93.36 11.85 93.46 11.94 93.34 12.02 93.33 12.13"/><polygon class="cls-2" points="97.02 13.28 96.97 13.34 96.92 13.88 97.36 13.64 97.34 13.47 97.08 13.29 97.02 13.28"/><polygon class="cls-2" points="92.38 14.82 92.73 14.56 93.21 14.37 93.57 14.32 93.98 14.27 94.09 14.17 94.09 14 93.9 13.98 93.69 14.05 93.36 13.99 92.95 14.06 92.64 14.13 92.56 14.3 92.14 14.47 92.2 14.56 91.81 14.73 91.68 14.91 91.54 14.91 91.41 15.11 91.54 15.33 91.46 15.5 91.8 15.79 91.88 15.79 91.84 15.37 92 15.07 92.38 14.82"/><polygon class="cls-2" points="105.31 29.31 105.44 29.1 105.58 28.77 105.65 28.57 105.42 28.64 105.22 28.9 105.06 29.15 105.12 29.28 105.31 29.31"/><polygon class="cls-2" points="105.73 9.04 105.61 8.88 105.5 8.85 105.52 9.04 105.46 9.15 105.52 9.25 105.48 9.36 105.68 9.41 105.72 9.33 105.67 9.19 105.69 9.15 105.73 9.04"/><polygon class="cls-2" points="106.59 23.43 106.59 23.42 106.58 23.44 106.59 23.43"/><polygon class="cls-2" points="106.71 23.12 106.88 23.12 106.88 23.12 106.71 23.12"/><rect class="cls-2" x="88.61" y="15.79" height="0.31"/><polygon class="cls-2" points="88.68 15.5 88.51 14.75 88.42 14.7 88.42 14.7 88.51 14.75 88.67 15.5 88.91 15.62 89.16 15.59 89.16 15.59 88.91 15.62 88.68 15.5"/><rect class="cls-2" x="89.9" y="15.78" height="0.19"/><polygon class="cls-2" points="89.26 16.12 89.26 16.12 89.5 15.98 89.56 15.7 89.78 15.58 89.87 15.31 89.86 15.31 89.78 15.58 89.56 15.7 89.5 15.98 89.26 16.12"/><polygon class="cls-2" points="88.11 15.8 88.17 15.61 88.17 15.61 88.11 15.8 87.97 15.91 87.97 15.91 88.11 15.8"/><path class="cls-2" d="M106.72,25l-.25-.1v0h0l0,0v0h-.16l0-.07.06-.12.12-.15.06-.16,0-.06.1-.16-.09-.18,0-.12,0-.15.06,0h0l.09-.05-.11,0v0h0l0-.13.09-.09-.11-.33-.16-.16.12-.25.24-.17v-.37l-.1-.34v-.16l-.06-.33-.22.36-.09.26-.28.26-.21-.19h-.31l-.38.18-.21-.23-.16-.12-.14-.08-.26-.22H104l-.33.11-.26.18-.21.21-.1.26h.14l.09.18-.08.16,0,.45,0,.14-.23.37-.3,0-.26.15-.16-.05-.15,0-.27.38-.29.18-.19.17-.33.06-.22.09-.19-.13-.27-.09-.26,0-.29.14-.23.12-.37-.06-.1-.25-.3,0H98.6l-.29-.1-.22.41.12.19-.23.27-.37,0h-.26l-.18-.15-.27,0-.23-.1-.39.18-.5.29-.28.06-.1,0-.13-.22-.34,0-.1-.16L94.65,25l-.1-.21-.14-.08-.37,0-.33-.25-.15.16-.41-1-.25-.36.11-.09-.64.2-.23-.05.07-.19-.27-.21h-.25l0-.39-.36-.22-.24.07-.57-.1-.13,0-.82-.26-.13.05.06.31-.23,0v.11l-.26,0,.25.41-.11.12-.3-.19-.1.06-.19-.33-.32-.2H88l-.17-.29-.31-.53-.29-.23h-.53l-.15.19-.07-.33-.32.17,0,.1L86,21.6l0,.32.14.12v.29l-.09.12.08.13,0,0h0l.22.12.26.07.12.19.2.13,0,.17-.11.17-.36-.27-.09.17-.18-.19-.08.17.09.18,0,.31.2.27v.09l-.1.11h0v.1h0v.22l-.14.18.13.13-.11.11.14.23-.1.19v.18l-.61-.49-.1-.23-.18-.22,0-.27.26-.16.25.2-.08-.27-.08-.1,0-.25-.06-.25h0v0l-.15,0-.07,0-.07-.11-.06-.26-.05-.06L85,23v-.15l-.14-.23,0,0-.07-.05V22.5l-.17-.38-.22-.33-.1-.21h0v-.05h0v.18l.08.15,0,.18,0,.18h0l0,0L84,22.16,83.86,22l-.18-.21-.16-.38-.37-.89L83,20.28l-.22-.14-.19-.48,0-.26.08-.25.26,0L83,19l.14.1,0-.07.28,0,.09.12-.05.08.14.39v.07h.06v0h0v-.06h.07l0,.11,0,.12V20l0,0v.06h0l.1-.15.12.06.13.19.15.05.15.17,0,0,.12.11,0,.06h0l0-.06-.15-.14.08-.1.11,0,.15.16.08,0,.06-.17.15-.06,0-.07L85,19.78l-.07-.1v-.23l-.14-.11L84.72,19l0,0,0-.17-.08-.17.05-.08h.07l0-.26-.13-.17,0-.07h-.07l0-.08.11-.19,0-.12h0l.08.16.09,0,0-.11,0-.17,0,0v-.13l.09-.26.08,0,.1-.12,0-.22-.06-.07,0-.08,0-.24.12-.19.12-.12,0-.13h.11l.21-.26H86l0-.05h0v0L86,15.48l0-.22-.14-.2-.18-.18-.2.16-.06.23,0,0-.09.06-.17.1,0-.07.15-.31L85,14.93l-.2,0-.17.12h0l0,0,0,0h0l-.16.17,0,0,0,.23v.11l-.08,0-.05.07-.11-.35,0-.26h0l0-.17,0,0v-.25l-.32-.43-.06-.06,0-.11.07-.32-.13-.2.06,0,0-.23,0,0v0l.15-.15.11,0v0l-.14.13-.12.31.15.05h0l.06.29.2,0,0,.26.33-.07.41-.21.1.14.41-.06.12-.27.16-.23.41-.11.33.13.33.09.19-.15h.23l.15.15-.06.25-.09.07-.08,0-.47-.11h-.24l-.2,0-.25.25-.31.16,0,.24-.13.23.19.25.22.21.15.28h0v-.05l.52,0H87l.18-.06.07-.38.22-.09.14-.3.31-.11.26-.41.3-.07.1-.34.23-.14.08.08.23.09h0l.1-.21.18.08.07-.58-.17-.16-.09-.23H89l0-.17-.24-.19-.84-.22L86.67,12l-.33-.15-.26-.29-.23-.1-.68.34-.31.19-.13.34.07.24.3.17-.11.14-.37.36-.25.3-.11-.22.17,0,0-.14.05,0,.08,0,.2-.11-.19-.17,0-.16-.2,0-.27.16-.28.24-.1.05,0-.39-.11-.25h-.32l0,0-.06-.33,0,0,.12-.14,0,0,.19-.07.07-.27.71-.74.09-.18.15.06.25,0,0-.23v-.09l.23.09,0-.25.06-.18L85,10l-.28,0-.15.13-.25.09.1-.12.06-.17-.09-.13-.12-.24L84,9.79l-.19-.08-.13.34,0,.32.2.09.16-.09.14.05.08-.1.09.06,0,0-.08,0-.19.34-.18.17.07-.28-.22,0-.08.09,0-.16-.15.15-.06.16-.16-.25-.11.21,0,.11-.07.21.07.08,0,.09v.06l-.26.2.08-.24L83,11l-.23.14-.14.36-.11.21-.21.33L82,12.2h0l.35-1.32v-.41l-.28.32h0l-.12.22,0-.14-.2.2-.2.34-.14.42-.11.23h0v-.11l.06-.37-.15,0L81,12l-.38,1.27a14.17,14.17,0,0,0-.49,4c0,.08,0,.43,0,.51a15.31,15.31,0,0,0,.25,3.16,20.62,20.62,0,0,0,1.31,3.37A15.35,15.35,0,0,0,85,28.92l.13-.09.06-.08v0l0-.05-.55-.49.68.55v-.06l.15.11.36.28.19.06.16.12h.1l.24.14h.1l0-.12h0l.12.09H87l.14,0v-.09L87,29.17l-.18-.24-.46-.41-.1-.18-.09-.26L85.81,28l-.15,0-.49-.44-.07-.08.05,0-.07-.25L85,27.12l-.1,0,0-.1v-.17l-.16-.29-.19-.51,0,0,0,0h0l.32.26.1.36.11.29.22.24.21.32.28.29.26.11.22.06,0,.24.4.4.27.22.49.34,0,0,.35.18.44.25.51.21.2.21.08.15.22.13.32.25s-.15-.05-.17,0,.5.4.5.4l.22.1.42.07,0,.11v.14l.25.4.3.2.15.17.19.12.11.05.31.18.3.1.49,0h.13l.09.14.17,0,.26,0h.15l.12-.08-.25-.09-.15,0L93,32.67H93v-.06l.13,0L93,32.4l.45,0h.2l.28-.05.58-.13.46,0,.22-.08,0-.08h.34l.24,0,0-.05h.25l.14,0,.16-.1v0h.2l.11.06.07.12.22.13v0l.13,0,.39.14,0,0-.15.18h.49l.37-.11.19-.06.1,0,0,.08.11.09.07,0,0,.06h0l0,0-.18.12-.6.09-.2,0,0,.19h.35l2.09-.42-.06-.18-.48.09-.48,0h0l.14-.09,0-.06.11,0-.07.07.42-.1.34,0h.18l.18,0h.27l.42-.16.24-.12.14-.06h0l.22-.09.27-.14.09-.17-.14-.12h-.19l-.26,0-.39-.09.25-.18.39-.25.13-.06.26-.07.07.06-.2.09-.16.12v.17l.3-.07.27-.16.07-.09.23-.18-.2,0,0-.08.3-.14.4-.26.15-.13h.09l.18-.15L104,30l.38-.33.37-.35L105,29l.19-.34.15-.29.15-.11,0-.21v-.23l-.19.05h0l.12-.13,0-.2-.23,0-.18-.08-.16-.16-.23.05,0-.15.21-.25.08-.2.35-.32-.13-.15-.18.11-.26.05-.22.34-.16,0,0-.1-.24.09-.12-.06.07-.13.24-.16.11-.25.21-.34.15-.2.09,0-.12.28.08.05-.18.41.42-.44.13-.21.28-.29h.1l.12-.06v.16h0l0,0-.06.23.15,0h0l0,.07.1-.14v0l.08,0,.14,0-.14.15.19.16v.19l.1.15.25-.24.14-.22.18-.22.06-.21-.09-.25ZM83.11,11.41v.23l0,.28-.14-.15ZM81.66,21.49l-.08-.13-.32-1.13-.12-.47V19.6L81,19.06l-.09-.13-.12,0-.07-.28L80.66,18l0-.24,0-1.19,0-.25h0l.17-.08,0-.12h0l.06.07L81,16,81,15.87l0,0,0-.58,0-.13,0-1.36,0-.3.18-.29,0,.15.11-.24.09.09h0v.2l.11.22.13-.14h0l0,.21-.06.49.09.23.09.08v.06l-.06.34-.13.2-.15.56-.13.92-.06.27,0,.12h0l-.08-.38,0-.38-.14.1,0,.45,0,.46.17-.13,0,.13h.12l0,.12.14-.1,0-.21h0l0,.46.13,0,0-.1,0-.29,0-.35,0-.19,0-.55.11-.24.05-.29.07-.12,0,.15-.08.21h.1v.1l-.07.12,0,0-.12.43h0l0,.45-.09.63-.1.11-.06.11,0,.29-.09.44-.12.37v.28l.11.32.07-.24.06.15.17-.14,0-.18v-.09l.07-.16.19.33v-.22l0,.08.07.25v0l0,.2H82v.26l-.14,0v.31l0,.32.11.26.06.32.1.2.07,0,.09.21,0,.28.22.37.14,0,.11.25h0v0l-.28-.31-.1-.2-.19-.24v.3l0,.16.26.27V22l.26.17v.13h-.06l0,.15-.43.17-.15-.25-.22-.58Zm1.13,4.28-.1-.22-.18-.36-.05-.11-.06-.21-.06-.31h0l-.27-.88L82,23.34l0-.18.08,0,.06.15,0,.22.36,1.18.07.27v.18l.13.28.36.73.1.18Zm3.67-1-.17-.21h0l.08-.15.13.05v.15l.08.2Z"/><polygon class="cls-2" points="83.48 20.11 83.74 20.27 83.91 20.46 83.91 20.46 83.74 20.27 83.48 20.11 83.44 19.95 83.54 19.9 83.47 19.6 83.47 19.6 83.54 19.9 83.44 19.95 83.48 20.11"/><rect class="cls-2" x="84.33" y="20.39" height="0.21"/><path class="cls-3" d="M83.91,20.46l-.17-.19-.26-.16,0-.16.1-.05-.07-.3h0l.17.14v-.07h.07l0,.12,0,.11V20l0,0,0,.15.14.2Zm.33-5,0-.26.12,0,.16.2,0,.23v.11l-.08,0-.05.07Zm9.31-3.35h-.07l0,.05h-.11V12l.12-.08-.1-.09.15,0,.07,0-.06.09.09,0,.1,0v.13l0,0Zm-1.17,2.72-.38.25-.16.3,0,.42h-.09l-.33-.29.08-.17-.13-.22.13-.19h.14l.13-.19.39-.17-.06-.09.42-.17.08-.17.31-.06.41-.08.33.06L93.9,14l.19,0v.17l-.11.1-.41.06-.36,0-.48.19ZM96.28,13l-.1-.07.16-.28.13-.11.15.19.22.36,0,.36-.16.08-.24-.1-.15-.14Zm1.08.6-.44.24,0-.54.06-.06h.06l.26.18Zm3.13-.35-.17-.24,0-.14.18-.16.37-.13.19.25-.24.28,0,.18Zm.59-.65-.1-.1.15-.11.21-.14.07.19-.1.1Zm.17,1-.06-.2.06-.12.21,0,.09.06-.1.13-.18.15Zm2-3.69v-.1l.09-.14h0l.1.14,0,.14,0,.14h-.11l-.15-.16Zm4.88,10.33-.19,0,0,.31-.16-.16-.14-.25-.2-.23-.1-.22-.24-.34-.27-.14-.25-.35,0-.28-.15-.06,0-.1.16.11.24.18.2.25.24.16.45.23-.24.21.17.46.29,0Zm.28-3.79-.36-.19-.56-.35-.29-.37-.1-.27-.12-.11,0-.31-.24-.54-.21-.47-.15-.44-.39-.36v.2l.22.24.2.6L106,14l0,.47.31.75h.21l-.09.43-.1.28-.18-.17L106,16l0,.31-.33.44-.28.59.06,1,0,1.25.25-.21.2.09.18-.1,0-.24.17-.17.41,0,.17.21.08.39.22.32.21.47V21l0,.23,0,.55-.08.54,0,.25L107,23l-.12.13h-.17l-.17.42v.11h0l-.06-.13.1-.09-.12-.33-.15-.16.12-.25.24-.17,0-.37-.09-.34v-.17l-.06-.32-.23.36-.09.26-.27.26-.21-.19h-.32l-.37.18-.21-.23-.16-.13-.14-.07-.27-.22H104l-.32.1-.26.19-.21.21-.1.25h.14l.09.19-.08.16-.06.45.06.14-.23.37-.31,0-.26.15-.16,0-.14,0-.27.39-.3.18-.19.17-.32.06-.22.08-.19-.12-.27-.09-.26,0-.3.14-.23.12-.37-.06-.09-.25-.3,0H98.6l-.29-.11-.23.41.13.19-.23.28-.38,0h-.25l-.19-.15-.26,0-.23-.1-.39.18-.5.3-.28.06-.1,0-.13-.22-.34,0-.1-.16L94.65,25l-.1-.21-.14-.09-.37.05-.33-.26-.15.16-.41-1-.25-.35.1-.1-.64.2-.22-.05.06-.19-.27-.21h-.25l0-.39-.36-.22-.24.08-.57-.11-.13,0-.82-.27-.13.06.05.31-.22,0v.1l-.26,0,.25.41-.12.13-.29-.2-.1.06-.19-.33-.32-.2H88l-.17-.29-.31-.53-.29-.23h-.53l-.15.19-.07-.33-.32.17,0,.11-.22.1,0,.33.13.11,0,.29-.09.12.07.13-.16.07-.2-.12-.23.06-.09,0,0,.4-.06.08,0,.06,0,.27,0,.22-.15,0-.07,0-.07-.11-.06-.27-.05-.05L85,23v-.14l-.13-.23,0,0-.07-.05V22.5l-.17-.38-.22-.33-.1-.21h0l-.08-.45L84,20.81l0-.31.13.12.25,0,0-.21.27.2,0-.06-.15-.14.07-.1.12,0,.15.16.08,0,0-.18.16-.05,0-.08L85,19.79l-.08-.11v-.23l-.13-.11L84.72,19l0,0,0-.17-.08-.17.05-.08h.07l0-.26-.13-.17,0-.07h-.07l0-.08.11-.19,0-.12h0l.08.16.09,0,0-.11,0-.17,0,0v-.13l.09-.26.08,0,.1-.12,0-.22-.06-.07,0-.08,0-.24.12-.19.12-.12,0-.13h.11l.21-.26H86l0-.05.24.05,0-.28.52,0H87l.18-.06.07-.38.22-.09.14-.3.31-.11.26-.42.3-.06.1-.34.23-.14.08.08.23.09.18,0-.07.33.14.35v.73l-.06.22-.17.19-.26,0-.23-.12-.17-.75-.09-.05-.09.39-.12.12-.28.28,0,.25v.17l.15-.11,0-.19.16,0,.07.47.15,0,.13-.28.5,0,.07.12v.21L89.5,16l.07-.28.21-.12.09-.27.2.38-.08.23-.17-.08-.15.17v.18l.23.09.19-.18.35,0,.6,0,.08.08-.26.13.13.14.16-.06.23.13.27,0,0,.31.28-.16,0-.29.13-.09.32.3.12.2.33.65.16-.17L92.92,17l0-.09-.14-.1.11-.16,0-.34,0-.12.36-.27.2-.33.12,0,.27.2,0,.23-.22.28.05.16-.05.29-.19.55.09.29-.13.25L93,18.3l.16.12.11-.13.2,0,.09-.19.18-.17,0-.25.13-.25-.16-.07,0-.24L94,16.7l-.07-.37.29-.21,0-.29h.06v.23l-.14.39.12.1v-.3l.24-.12.27,0,.2.28-.07-.37.06-.44.22-.05.28,0,.25,0-.08-.22.14-.27h.12l.22-.2.26-.07,0-.11.26-.06.1.08.19-.24.18,0V14.3l0-.2.17-.2.18.09-.08.12h.21l.08.19.06-.12.27-.08.27.11.14.11.06.21-.06.15-.18.32,0,.14h.15l.19,0,.07-.11.16.23v-.13l.15-.12.36-.1.11.15.45-.17-.15-.28.24-.07.15-.11.27.07.2.19,0,.17.32.18h.25l-.17-.41h.26l.08-.22.25-.08v-.15l.17-.11-.34-.2,0-.23.79-.66.24.06.39-.11.13-.46.15-.2h.17l.24.15.14-.1,0-.19,0-.22.13-.19v-.25l.33-.09-.1-.2-.22,0-.15-.1.12-.34v-.26l.16-.31.13-.13.22-.25.27-.28.2,0,.06-.08h-.22l0-.34.21-.22.17.14.08.23.3.05.08.07,0,.13-.08.08-.06.18h-.12l0,.13.07.16-.11.05-.12-.06.09.18.15,0,.14.12.15.22,0,.18.17-.07.24,0,.07,0,.12,0,.08,0,0,.27.24.53,0,.15.19.34.17.32.12.13-.22.14.16.55-.11,0,.08.23-.08.2.17.18.21.37.11.07.1-.17.38.27,0,.18.2.23H108l0,.43.24.27,0,.35.21.24.1.48Z"/><path class="cls-4" d="M108.57,27.34A16,16,0,0,0,111.39,22,15.44,15.44,0,0,0,110,8.89s-1-1.54-1.5-2.1A17,17,0,0,0,96.11,1.11a16.37,16.37,0,0,0-2.23.17c-7,.86-12.63,6-13.65,12.48a15.87,15.87,0,0,0-.4,3.54A16.14,16.14,0,0,0,95.91,33.4h.22a16,16,0,0,0,8.7-2.66,15,15,0,0,0,3.73-3.4Zm-3.82,3c0,.1,0,.17,0,.23a16,16,0,0,1-3.91,1.87c0-.08,0-.18,0-.31A16.22,16.22,0,0,0,104.75,30.34Zm-4,1.56c0-.43,0-1.07-.11-2a16.23,16.23,0,0,0,4-1.76,8.16,8.16,0,0,1,.08,1.88A16,16,0,0,1,100.8,31.9Zm-13.65-2a8,8,0,0,1,.11-1.68,16.56,16.56,0,0,0,4,1.77,16.73,16.73,0,0,0,0,1.9A16.15,16.15,0,0,1,87.15,29.87Zm4.16,2.23c0,.17,0,.31.06.4a16,16,0,0,1-4.08-1.9,1.71,1.71,0,0,1-.11-.45A16.31,16.31,0,0,0,91.31,32.1ZM84.21,6.62l.11-.12h.06a12.91,12.91,0,0,0-1.67,2.72,6.34,6.34,0,0,0-.62.37,15,15,0,0,1,1.72-2.52C83.93,6.91,84.08,6.77,84.21,6.62Zm27.64,11.53c0-.09-.08-.19-.13-.29a11.39,11.39,0,0,0,.13-1.31c0,.25,0,.49,0,.75S111.86,17.87,111.85,18.15ZM80.27,15.87c0-.24,0-.47,0-.7s.1-.68.16-1a5.77,5.77,0,0,1,1.28-1.33c0,.37-.06.74-.06,1.12a11.15,11.15,0,0,0,.18,1.92,9.4,9.4,0,0,0-1.46,1.82A13.68,13.68,0,0,1,80.27,15.87Zm31.13-2.39a6.41,6.41,0,0,0-1.28-1.14,11.42,11.42,0,0,0-.75-2.78,5.81,5.81,0,0,1,.68.34A15.73,15.73,0,0,1,111.4,13.48Zm-1.53-1.31a13.36,13.36,0,0,0-3.06-1.44,8.6,8.6,0,0,0-.49-2,12.93,12.93,0,0,1,2.76.75A11.36,11.36,0,0,1,109.87,12.17ZM110,14a10.15,10.15,0,0,1-.12,1.56,16.93,16.93,0,0,0-3.18-2.25,8.85,8.85,0,0,0,.15-1.55c0-.24,0-.48,0-.72a12.63,12.63,0,0,1,3.09,1.52A9.77,9.77,0,0,1,110,14Zm-5.89,3.83c-1-1.3-2.25-2.75-3.77-4.35a4.85,4.85,0,0,0,.86-1,37.09,37.09,0,0,1,4.43,3.25A9.42,9.42,0,0,1,104.13,17.78ZM86.39,15.86a43.94,43.94,0,0,1,4.38-3.35,5.58,5.58,0,0,0,.82.94,55.22,55.22,0,0,0-3.74,4.36A9.46,9.46,0,0,1,86.39,15.86Zm-1.1-4.15c0-.26,0-.51,0-.76A25.16,25.16,0,0,1,90,9.82v.06A4.56,4.56,0,0,0,90.09,11a32.5,32.5,0,0,0-4.65,2.21A8.18,8.18,0,0,1,85.29,11.71ZM89,3l.56-.27.33-.14h0a7.85,7.85,0,0,1,.92.6,11.37,11.37,0,0,0-2,1.25,7.79,7.79,0,0,0-1.56-.36A13.82,13.82,0,0,1,89,3Zm13.31-.27.58.28a13.86,13.86,0,0,1,1.74,1.05c-.31.1-.78.26-1.38.5a11.32,11.32,0,0,0-2.1-1.33c.41-.34.7-.55.83-.64h0Zm-.57,7.14a4.59,4.59,0,0,1-.13,1.06c-1.3-.48-3.18-1-4.82-1.5a48.67,48.67,0,0,1,5,.4Zm-11.6,0V9.79a44.2,44.2,0,0,1,5-.44c-1.75.49-3.47,1-4.83,1.56A4.4,4.4,0,0,1,90.17,9.88Zm10.57-6.59a22,22,0,0,0-2,2,6.33,6.33,0,0,0-1.25-.42,19.06,19.06,0,0,1,1.09-2.27A11.45,11.45,0,0,1,100.74,3.29Zm-2-.9a6.88,6.88,0,0,1,.43-.67,16.07,16.07,0,0,1,2.56.77c-.18.13-.45.34-.8.64A12.26,12.26,0,0,0,98.74,2.39Zm-3,6.81a.24.24,0,1,1,.24.22A.23.23,0,0,1,95.73,9.2Zm.39-.75c0-.57-.05-1.78-.05-3.55A5.64,5.64,0,0,1,97.23,5,26.75,26.75,0,0,0,96.12,8.45Zm-.23,0A26.93,26.93,0,0,0,94.78,5a7.32,7.32,0,0,1,1.06-.1C95.85,6.93,95.87,8,95.89,8.49Zm.76.42a27.58,27.58,0,0,1,3.49-2.48,5,5,0,0,1,.76.84A31.36,31.36,0,0,0,96.65,8.91ZM101,7.46a5.55,5.55,0,0,1,.43.84,27.93,27.93,0,0,0-4.66.78A35.13,35.13,0,0,1,101,7.46ZM96.55,8.7a28.33,28.33,0,0,1,2.32-3.13,5.67,5.67,0,0,1,1.09.71A31.23,31.23,0,0,0,96.55,8.7Zm-.2-.14a27.84,27.84,0,0,1,1.09-3.5,6.76,6.76,0,0,1,1.2.4A26.33,26.33,0,0,0,96.35,8.56Zm1-3.75a6.36,6.36,0,0,0-1.24-.13c0-.71,0-1.51,0-2.39a11.57,11.57,0,0,1,2.3.25A21,21,0,0,0,97.31,4.81Zm-1.47-.13a7.1,7.1,0,0,0-1.14.11,21,21,0,0,0-1.08-2.27,12.81,12.81,0,0,1,2.25-.23C95.85,3.17,95.84,4,95.84,4.68Zm-1.36.16a7.26,7.26,0,0,0-1.17.37,14.83,14.83,0,0,0-2-2,11.41,11.41,0,0,1,2.12-.68A19.28,19.28,0,0,1,94.48,4.84Zm.08.21a26.55,26.55,0,0,1,1.08,3.5,17.1,17.1,0,0,0-2.18-3.16A6.69,6.69,0,0,1,94.56,5.05Zm.86,3.64a22.11,22.11,0,0,0-3.23-2.58,5.12,5.12,0,0,1,1.06-.63A18.56,18.56,0,0,1,95.42,8.69Zm-.12.12a41.81,41.81,0,0,0-4.11-1.75,4.72,4.72,0,0,1,.81-.8A26.43,26.43,0,0,1,95.3,8.81ZM95.21,9a36.76,36.76,0,0,0-4.7-.74,5.22,5.22,0,0,1,.53-1A32.62,32.62,0,0,1,95.21,9Zm-.12.2a43.55,43.55,0,0,0-4.9.41,4.28,4.28,0,0,1,.23-1.13A36.27,36.27,0,0,1,95.09,9.15Zm.14.36c-1.59.91-3.15,1.85-4.4,2.69a4.84,4.84,0,0,1-.47-1.07A50.44,50.44,0,0,1,95.23,9.51Zm.21.11c-1.39,1.3-2.61,2.52-3.7,3.67a5.15,5.15,0,0,1-.78-.91C92.27,11.51,93.75,10.58,95.44,9.62Zm.11.15c-.94,1.53-1.82,3.06-2.57,4.38a5.68,5.68,0,0,1-1.07-.71C93,12.32,94.2,11,95.55,9.77Zm.16.12c-.5,1.68-1,3.33-1.38,4.77a5.61,5.61,0,0,1-1.15-.41C93.92,12.94,94.78,11.42,95.71,9.89Zm.2,0c0,1.23,0,3.06,0,4.95a6.27,6.27,0,0,1-1.32-.16C95,13.28,95.4,11.58,95.91,9.92Zm.22,0q.74,2.56,1.32,4.79a6.66,6.66,0,0,1-1.36.17C96.1,12.89,96.11,11.16,96.13,9.91Zm.22,0c1,1.51,1.82,3,2.57,4.28a6.47,6.47,0,0,1-1.25.48C97.28,13.19,96.84,11.57,96.35,9.89Zm.17,0C97.73,11,99.07,12.4,100,13.43a6,6,0,0,1-.92.64C98.42,12.85,97.39,11.25,96.52,9.87Zm.22,0c1.61.84,3,1.67,4.3,2.46a4.79,4.79,0,0,1-.83,1C99.18,12.2,98,11.05,96.74,9.84Zm0-.24c1.81.51,3.41,1,4.81,1.56a4.23,4.23,0,0,1-.42.95Q99.23,10.9,96.76,9.6Zm0-.3a28.53,28.53,0,0,1,4.76-.79,4,4,0,0,1,.21,1.1A47,47,0,0,0,96.78,9.3Zm5-.81a19.76,19.76,0,0,1,4.29.17,8.33,8.33,0,0,1,.52,2,25.6,25.6,0,0,0-4.6-1A4.41,4.41,0,0,0,101.77,8.49Zm-.07-.21a4.82,4.82,0,0,0-.44-.88,25.76,25.76,0,0,1,3.65-.83,8.66,8.66,0,0,1,1,1.85A20.4,20.4,0,0,0,101.7,8.28Zm-.57-1.07a5.2,5.2,0,0,0-.79-.9,21.64,21.64,0,0,1,2.9-1.48,9.22,9.22,0,0,1,1.52,1.54A26.25,26.25,0,0,0,101.13,7.21Zm-1-1.06A6.63,6.63,0,0,0,99,5.39a20.43,20.43,0,0,1,2-2,11,11,0,0,1,2,1.27A25,25,0,0,0,100.17,6.15ZM98.51,2.34a12,12,0,0,0-2.42-.27c0-.22,0-.44,0-.66a15.3,15.3,0,0,1,2.81.28A7.32,7.32,0,0,0,98.51,2.34Zm-2.64-.27a11.45,11.45,0,0,0-2.36.25c-.17-.29-.31-.51-.4-.65a15.88,15.88,0,0,1,2.78-.26C95.88,1.63,95.87,1.85,95.87,2.07Zm-2.59.3a11.59,11.59,0,0,0-2.2.73,8.24,8.24,0,0,0-.88-.6,16,16,0,0,1,2.66-.79A7.62,7.62,0,0,1,93.28,2.37Zm-2.23,1a14.57,14.57,0,0,1,2,1.95A6.22,6.22,0,0,0,92,6a15,15,0,0,0-2.93-1.45A11.6,11.6,0,0,1,91.05,3.35Zm.74,2.78A5.61,5.61,0,0,0,91,7a19.65,19.65,0,0,0-3.62-.81,9.49,9.49,0,0,1,1.5-1.47A14.45,14.45,0,0,1,91.79,6.13Zm-1,1.06a4.83,4.83,0,0,0-.54,1A20.56,20.56,0,0,0,86,8.26,8.56,8.56,0,0,1,87.15,6.4,18.7,18.7,0,0,1,90.82,7.19Zm-.63,1.22A5.14,5.14,0,0,0,90,9.59a25.05,25.05,0,0,0-4.61,1.1,8.8,8.8,0,0,1,.58-2.17A20.35,20.35,0,0,1,90.19,8.41Zm0,2.8a4.61,4.61,0,0,0,.5,1.11,45.08,45.08,0,0,0-4.37,3.32,8.39,8.39,0,0,1-.8-2.18A31.07,31.07,0,0,1,90.15,11.21Zm1.6,2.39a6.58,6.58,0,0,0,1.12.74c-1.11,2-2,3.71-2.76,5.24A10.62,10.62,0,0,1,88,18,57,57,0,0,1,91.75,13.6Zm1.32.85a6.84,6.84,0,0,0,1.2.43c-.6,2.19-1.09,4.12-1.48,5.83a10.79,10.79,0,0,1-2.47-1C91.06,18.16,92,16.42,93.07,14.45Zm1.42.48a7.67,7.67,0,0,0,1.38.16v6A12.18,12.18,0,0,1,93,20.76C93.4,19.05,93.89,17.12,94.49,14.93Zm1.6.16a6.65,6.65,0,0,0,1.42-.18q.85,3.27,1.42,5.85a12,12,0,0,1-2.84.37Zm1.63-.23a6.23,6.23,0,0,0,1.31-.5c1.12,1.95,2,3.7,2.76,5.24a11.25,11.25,0,0,1-2.64,1.11C98.77,19,98.3,17,97.72,14.86Zm1.51-.6a6.67,6.67,0,0,0,1-.67c1.51,1.6,2.75,3.05,3.76,4.35a10,10,0,0,1-2,1.55C101.26,17.94,100.35,16.2,99.23,14.26Zm2.11-2a5.07,5.07,0,0,0,.44-1,34.81,34.81,0,0,1,4.69,2.16,8.71,8.71,0,0,1-.7,2A40.14,40.14,0,0,0,101.34,12.22Zm.5-1.2A4.24,4.24,0,0,0,102,9.88h0a25.75,25.75,0,0,1,4.61,1,7.16,7.16,0,0,1,.05.8,8.35,8.35,0,0,1-.14,1.43A37.38,37.38,0,0,0,101.84,11Zm4.38-2.56a9.58,9.58,0,0,0-1.07-1.93,18.44,18.44,0,0,1,2-.18A12.36,12.36,0,0,1,109,9.17,14.5,14.5,0,0,0,106.22,8.46ZM105,6.33a10.49,10.49,0,0,0-1.53-1.6,13.7,13.7,0,0,1,1.42-.49A12.88,12.88,0,0,1,107,6.13C106.5,6.15,105.83,6.21,105,6.33Zm-18-2a7.3,7.3,0,0,1,1.62.34,10.4,10.4,0,0,0-1.52,1.52,9.73,9.73,0,0,0-2.12,0A12.84,12.84,0,0,1,87,4.29Zm-.08,2.09a9.36,9.36,0,0,0-1.1,1.92A10.29,10.29,0,0,0,83,9.06a12.06,12.06,0,0,1,1.7-2.63A9,9,0,0,1,86.89,6.38ZM85.68,8.56a8.64,8.64,0,0,0-.56,2.21A13.68,13.68,0,0,0,82,12.31a11.18,11.18,0,0,1,.84-2.91A9.79,9.79,0,0,1,85.68,8.56ZM81.79,12.5a6.62,6.62,0,0,0-1.22,1.14A15.28,15.28,0,0,1,81.86,10a5.57,5.57,0,0,1,.71-.48A11.59,11.59,0,0,0,81.79,12.5ZM81.91,14A10.9,10.9,0,0,1,82,12.66,12.61,12.61,0,0,1,85.11,11c0,.23,0,.45,0,.68a8.53,8.53,0,0,0,.16,1.61,17.81,17.81,0,0,0-3.17,2.36A11.12,11.12,0,0,1,81.91,14Zm3.37-.37a8.67,8.67,0,0,0,.83,2.21,22.91,22.91,0,0,0-3,3.17,11.33,11.33,0,0,1-1-3A18.08,18.08,0,0,1,85.28,13.58Zm1,2.43a9.47,9.47,0,0,0,1.48,2,30.71,30.71,0,0,0-2.59,4,12.39,12.39,0,0,1-1.9-2.73A21.63,21.63,0,0,1,86.23,16Zm1.65,2.15A10.75,10.75,0,0,0,90,19.78c-.86,1.79-1.49,3.3-2,4.57a13.68,13.68,0,0,1-2.77-2.23A32.37,32.37,0,0,1,87.88,18.16Zm2.34,1.73a11.2,11.2,0,0,0,2.52,1c-.45,2-.77,3.63-1,5a14.69,14.69,0,0,1-3.47-1.48C88.74,23.2,89.36,21.69,90.22,19.89ZM93,21a12.6,12.6,0,0,0,2.91.37c0,1.79,0,3.56,0,5.18A15.61,15.61,0,0,1,92,26C92.2,24.61,92.52,23,93,21Zm3.13.37A11.92,11.92,0,0,0,99,21c.43,2,.74,3.63,1,5a16.11,16.11,0,0,1-3.85.52C96.1,24.91,96.09,23.14,96.09,21.35Zm3.1-.42a11.49,11.49,0,0,0,2.69-1.13,41,41,0,0,1,1.88,4.61A14.6,14.6,0,0,1,100.17,26C99.94,24.55,99.62,22.88,99.19,20.93Zm2.9-1.24a10.67,10.67,0,0,0,2-1.57,32,32,0,0,1,2.62,3.93A14,14,0,0,1,104,24.27,44.41,44.41,0,0,0,102.09,19.69ZM104.26,18a9.8,9.8,0,0,0,1.56-2.13,20.11,20.11,0,0,1,3,3.19,12.13,12.13,0,0,1-1.93,2.85A32.65,32.65,0,0,0,104.26,18Zm1.68-2.35a8.5,8.5,0,0,0,.73-2.09,16.42,16.42,0,0,1,3.18,2.3,11.13,11.13,0,0,1-.9,2.94A20.72,20.72,0,0,0,105.94,15.6ZM110,16a7.21,7.21,0,0,1,1.45,2,13.74,13.74,0,0,1-1,3.47A10.31,10.31,0,0,0,109.1,19,11.3,11.3,0,0,0,110,16Zm.06-.3a12.63,12.63,0,0,0,.15-1.74c0-.43,0-.85-.07-1.27A5.46,5.46,0,0,1,111.52,14a12.73,12.73,0,0,1,.15,1.86,14.91,14.91,0,0,1-.11,1.65A7.85,7.85,0,0,0,110.1,15.69Zm-.85-6.41a12.43,12.43,0,0,0-1.82-2.94h0a15.86,15.86,0,0,1,2.37,3.21A6.25,6.25,0,0,0,109.25,9.28ZM80.3,18.4a14.1,14.1,0,0,0,1.13,3.45,5.38,5.38,0,0,0-.19.63,15.35,15.35,0,0,1-1-4Zm.17-.34a9,9,0,0,1,1.45-1.88,11.72,11.72,0,0,0,1,3,10.93,10.93,0,0,0-1.4,2.42A13.11,13.11,0,0,1,80.47,18.06Zm2.6,1.35A12.92,12.92,0,0,0,85,22.14,15.93,15.93,0,0,0,83.79,25a14.35,14.35,0,0,1-2.1-3.14A10.9,10.9,0,0,1,83.07,19.41Zm2.13,2.91A13.85,13.85,0,0,0,88,24.56a23.3,23.3,0,0,0-.91,3.26A15.45,15.45,0,0,1,84,25.23,15.41,15.41,0,0,1,85.2,22.32Zm3,2.36a14.83,14.83,0,0,0,3.51,1.49c-.23,1.47-.35,2.65-.41,3.56a15.89,15.89,0,0,1-4-1.77A21.56,21.56,0,0,1,88.21,24.68ZM92,26.23a15.85,15.85,0,0,0,3.93.52c0,1.36,0,2.6,0,3.63a17.3,17.3,0,0,1-4.35-.59C91.6,28.88,91.72,27.71,92,26.23Zm4.15.52a16.51,16.51,0,0,0,3.89-.52c.23,1.45.38,2.62.46,3.54a17.08,17.08,0,0,1-4.33.61C96.11,29.35,96.11,28.11,96.1,26.75Zm4.11-.57a15.23,15.23,0,0,0,3.62-1.56,22,22,0,0,1,.84,3.32,16.37,16.37,0,0,1-4,1.78C100.58,28.79,100.44,27.63,100.21,26.18Zm3.84-1.69a14.08,14.08,0,0,0,2.77-2.24,15.84,15.84,0,0,1,1.23,2.87,15.26,15.26,0,0,1-3.15,2.67A21.18,21.18,0,0,0,104.05,24.49Zm3-2.42a12.9,12.9,0,0,0,2-2.86,10.16,10.16,0,0,1,1.34,2.53,14.17,14.17,0,0,1-2.07,3.15A15.31,15.31,0,0,0,107,22.07Zm3.41,0a4.34,4.34,0,0,1,.2,1.36,15.47,15.47,0,0,1-2,3.25,7.12,7.12,0,0,0-.28-1.49A14.8,14.8,0,0,0,110.41,22Zm.42.89a5.19,5.19,0,0,0-.25-1.21,14.09,14.09,0,0,0,1.07-3.39,2.77,2.77,0,0,1,.15.65,15.76,15.76,0,0,1-.62,3C111.07,22.3,111,22.61,110.83,22.92Zm-29.67,0a.71.71,0,0,0,0,.14,15.84,15.84,0,0,1-.81-2.75A16.49,16.49,0,0,0,81.16,22.9Zm.2.45a15.62,15.62,0,0,0,2.09,3.4c0,.12,0,.23,0,.31a15.81,15.81,0,0,1-2.08-3.47h0A1.56,1.56,0,0,1,81.36,23.35Zm0-.44a5.49,5.49,0,0,1,.19-.75,14.81,14.81,0,0,0,2.12,3.1,9.84,9.84,0,0,0-.23,1.17A15.19,15.19,0,0,1,81.4,22.91Zm2.52,2.56A15.63,15.63,0,0,0,87,28.06a8.44,8.44,0,0,0-.14,1.63,16.23,16.23,0,0,1-3.21-3A7.47,7.47,0,0,1,83.92,25.47ZM91.53,30a16.52,16.52,0,0,0,4.37.59v2a16.2,16.2,0,0,1-4.37-.65A17,17,0,0,1,91.53,30Zm4.59.59a16.79,16.79,0,0,0,4.35-.6c.08.9.11,1.54.11,2a16,16,0,0,1-4.45.63C96.12,32.11,96.12,31.43,96.12,30.6ZM104.93,28a16.15,16.15,0,0,0,3.19-2.67,6,6,0,0,1,.25,1.56,16.1,16.1,0,0,1-3.34,3A8.86,8.86,0,0,0,104.93,28Zm-21.24-.65a1.73,1.73,0,0,1,0-.35A16.18,16.18,0,0,0,86.92,30a3.13,3.13,0,0,0,.07.44A15.79,15.79,0,0,1,83.69,27.39Zm7.92,5.18c0-.07,0-.2-.06-.41a16.39,16.39,0,0,0,4.35.65c0,.15,0,.28,0,.37A15.68,15.68,0,0,1,91.61,32.57Zm4.52.24a16.38,16.38,0,0,0,4.45-.62c0,.14,0,.25,0,.31a15.9,15.9,0,0,1-4.44.68ZM105,30.39q0-.09,0-.21a16.13,16.13,0,0,0,3.3-2.86A15.67,15.67,0,0,1,105,30.39Z"/><text class="cls-5" transform="translate(0 30.13)">N<tspan class="cls-6" x="24.84" y="0">E</tspan><tspan x="44.31" y="0">W</tspan></text></g></g></svg>